PathFileType	4	(X/Y/Z)	..\data\2014031\dynamic\2014031_C5_05.trc
DataRate	CameraRate	NumFrames	NumMarkers	Units	OrigDataRate	OrigDataStartFrame	OrigNumFrames
100.000000	100.000000	4	52	mm	100.000000	19	153
Frame#	Time	L_IAS			L_IPS			R_IPS			R_IAS			L_FTC			L_FLE			L_FME			L_FAX			L_TTC			L_FAL			L_TAM			L_FCC			L_FM1			L_FM2			L_FM5			R_FTC			R_FLE			R_FME			R_FAX			R_TTC			R_FAL			R_TAM			R_FCC			R_FM1			R_FM2			R_FM5			CV7			TV10			SXS			SJN			L_SIA			L_SRS			L_SAA			L_SAE			L_HLE			L_HME			L_UOA			L_RSP			L_UHE			L_HM2			L_HM5			R_SIA			R_SRS			R_SAA			R_SAE			R_HLE			R_HME			R_UOA			R_RSP			R_UHE			R_HM2			R_HM5			
		X1	Y1	Z1	X2	Y2	Z2	X3	Y3	Z3	X4	Y4	Z4	X5	Y5	Z5	X6	Y6	Z6	X7	Y7	Z7	X8	Y8	Z8	X9	Y9	Z9	X10	Y10	Z10	X11	Y11	Z11	X12	Y12	Z12	X13	Y13	Z13	X14	Y14	Z14	X15	Y15	Z15	X16	Y16	Z16	X17	Y17	Z17	X18	Y18	Z18	X19	Y19	Z19	X20	Y20	Z20	X21	Y21	Z21	X22	Y22	Z22	X23	Y23	Z23	X24	Y24	Z24	X25	Y25	Z25	X26	Y26	Z26	X27	Y27	Z27	X28	Y28	Z28	X29	Y29	Z29	X30	Y30	Z30	X31	Y31	Z31	X32	Y32	Z32	X33	Y33	Z33	X34	Y34	Z34	X35	Y35	Z35	X36	Y36	Z36	X37	Y37	Z37	X38	Y38	Z38	X39	Y39	Z39	X40	Y40	Z40	X41	Y41	Z41	X42	Y42	Z42	X43	Y43	Z43	X44	Y44	Z44	X45	Y45	Z45	X46	Y46	Z46	X47	Y47	Z47	X48	Y48	Z48	X49	Y49	Z49	X50	Y50	Z50	X51	Y51	Z51	X52	Y52	Z52	

20	0.19	27.23171997070313	940.4334716796877	-325.4873657226563	-171.3763122558594	964.2449340820315	-280.1706542968751	-178.9563293457032	953.8679809570315	-174.1591186523438	7.242222309112551	923.232849121094	-101.2356719970703	-55.20867919921876	869.3663330078127	-415.2016601562501	79.81418609619142	469.0992431640626	-366.9657287597657	73.37960815429689	466.3074340820314	-237.4705505371094	77.06926727294923	409.0881652832032	-366.5078125000001	135.2783203125	416.1459350585939	-303.2788696289063	42.67744827270509	66.35556793212892	-328.7885742187501	66.62464141845705	82.89184570312501	-238.2084197998047	-4.359129905700684	19.37120437622071	-284.2666625976563	190.2299194335938	19.69095993041993	-239.8830566406251	200.1766052246094	34.18201446533204	-298.9557800292969	156.886459350586	20.70305633544922	-354.0505371093751	-85.24829864501955	826.2810668945315	-43.25500488281251	-107.2931671142578	436.8727111816407	-80.47751617431642	-82.5978469848633	414.5404357910157	-206.8288879394532	-147.2806701660157	399.9620971679689	-77.37791442871095	-97.27263641357425	349.0071411132813	-123.7591857910157	-443.1116943359376	235.1705322265626	-122.2148208618164	-399.0088500976564	201.791244506836	-196.8206787109376	-488.6016235351564	239.7061157226563	-186.6719970703125	-433.2398986816407	62.69700622558595	-170.2093505859375	-430.1742553710939	68.54205322265626	-109.0125045776367	-476.0284423828126	105.6147613525391	-79.91979980468751	-116.9740142822266	1480.517822265625	-232.5629882812501	-190.9873352050782	1200.80615234375	-227.2170562744141	29.89808654785157	1198.526489257813	-223.909652709961	-2.161289691925049	1391.879760742188	-232.6345520019532	-194.451156616211	1224.721069335938	-334.6192626953126	-148.21533203125	1380.674560546875	-366.9918212890626	-100.3592376708985	1370.460693359375	-427.0345153808595	-50.68558502197267	1370.858520507813	-428.7923889160157	-142.8502197265625	1048.3740234375	-491.6528930664064	-179.6458282470703	1035.869384765625	-415.7882690429689	-181.8826904296875	1031.375244140625	-465.2106018066407	-100.6839065551758	784.5952148437502	-447.5937500000001	-128.310546875	795.864929199219	-524.1177978515626	-106.5336380004883	693.7172851562501	-454.7494201660157	-162.685287475586	726.7042236328126	-532.0966796875001	-197.2465820312501	1234.2705078125	-122.5036392211914	-153.4461517333985	1392.476806640625	-103.6166915893555	-95.34802246093751	1391.72412109375	-44.23232650756837	-50.28056716918947	1383.185913085938	-31.90601348876954	-42.06306457519532	1047.075317382813	43.52848815917969	-78.56804656982423	1021.375854492188	-32.99674224853516	-78.54576110839845	1004.540344238281	11.30878829956055	165.1477966308594	914.3569335937502	-40.73334884643555	138.2839965820313	868.0028076171877	16.6042652130127	244.0578765869141	866.6082763671877	-48.20893859863283	188.3023834228516	800.8739013671877	3.496024608612061	
21	0.2	42.33162307739259	943.0246582031252	-325.9618835449219	-156.091781616211	967.5703735351565	-281.6843261718751	-164.2430877685547	956.734802246094	-175.9210968017578	21.30887222290039	926.2720947265627	-101.5699462890625	-40.31185531616212	872.2856445312502	-416.1846008300782	85.22188568115236	468.7940673828126	-366.9676513671876	77.3027801513672	465.7810363769532	-237.5836486816407	81.26667785644533	408.6491699218751	-366.5389709472657	139.4069213867188	414.938201904297	-303.0357971191407	42.9682960510254	66.5289764404297	-328.6008300781251	66.64746093750001	82.95344543457033	-237.9905700683594	-4.086598873138429	19.33378791809082	-284.1593627929688	190.2924194335938	20.09591484069825	-239.7207946777344	200.2776794433594	34.7392807006836	-298.8456726074219	156.9369354248047	21.41001510620118	-354.0340576171876	-70.24285125732423	828.2861938476565	-44.64420700073243	-76.08167266845705	438.6263732910157	-82.01110076904298	-50.46854782104494	416.9912719726564	-208.4962310791016	-114.9012985229492	402.2190246582032	-79.06337738037111	-64.67358398437501	351.4816894531251	-125.6183624267578	-411.5161437988282	240.0168762207032	-124.2859268188477	-367.5274047851563	205.9970397949219	-198.7926177978516	-457.6041259765626	243.4879760742188	-188.6741333007813	-400.2324829101564	67.29491424560548	-168.8927154541016	-396.9859008789064	73.75893402099611	-107.8633651733399	-442.8323364257814	112.1640167236328	-79.37557220458986	-101.0720367431641	1483.642700195313	-232.9200134277344	-175.4888610839844	1204.109741210938	-228.5761871337891	45.28311920166016	1201.5634765625	-223.8961486816407	13.58809471130371	1394.936401367188	-232.6217346191407	-178.4005737304688	1228.394287109375	-336.4374084472657	-131.6654357910157	1383.980102539063	-367.8257446289063	-83.41089630126955	1373.674926757813	-427.611541748047	-33.91398620605469	1374.183471679688	-428.9070129394532	-120.5218887329102	1050.218994140625	-492.8768310546876	-158.2276000976563	1037.04296875	-417.6685485839845	-159.4695892333985	1032.330200195313	-467.0926818847657	-72.62554931640626	787.2200927734377	-447.2609252929689	-100.0270385742188	797.6514282226565	-523.9660644531251	-73.2675018310547	696.4550170898439	-455.2059326171876	-130.8561401367188	726.7518920898439	-532.4958496093751	-182.2805938720703	1237.3681640625	-123.8923950195313	-138.1227416992188	1395.495239257813	-104.3300399780274	-80.61460876464845	1394.74853515625	-44.65124130249024	-35.48861312866212	1386.064453125	-32.00595092773438	-30.08336067199708	1049.4072265625	42.5708122253418	-67.43642425537111	1024.804321289063	-33.75214004516602	-67.49414062500001	1007.984252929688	10.32216453552246	173.0558624267578	910.3626098632815	-40.8797950744629	145.3895416259766	865.7927856445315	17.35513687133789	250.2464599609376	860.0999145507815	-48.57979965209962	193.2026977539063	796.9057617187502	4.649670600891114	
22	0.21	57.24556350708009	945.538513183594	-326.4076232910157	-140.8755493164063	970.8159179687502	-283.1323852539063	-149.652816772461	959.7925415039065	-177.649658203125	35.25675582885743	929.5216064453127	-101.8034591674805	-25.67245674133301	875.0932617187502	-417.1109619140626	89.98445892333986	468.5106506347657	-366.9925231933594	80.68868255615236	465.2696838378907	-237.7050933837891	84.84792327880861	408.2101440429689	-366.6051330566407	142.9124908447266	413.7864074707032	-302.8754577636719	43.17199707031251	66.63274383544923	-328.4940490722657	66.63402557373048	82.98303985595705	-237.8561706542969	-3.914432764053346	19.28734016418457	-284.0719299316407	190.3023986816407	20.41684341430664	-239.6393280029297	200.2890014648438	35.15007019042969	-298.7846374511719	156.9371337890625	21.89434623718262	-353.9892272949219	-55.51242828369142	830.6835937500002	-45.91315841674805	-45.10832595825196	441.1765136718751	-83.56738281250001	-18.59004592895508	420.4753417968751	-210.118637084961	-82.65593719482423	405.0075683593751	-80.81807708740236	-31.92776107788087	354.7971801757813	-127.5669097900391	-378.8112487792969	243.1284942626954	-126.3463287353516	-334.9142456054688	209.1723022460938	-200.9400177001954	-425.8195190429689	245.043441772461	-190.4339141845703	-364.0881652832032	70.83642578125001	-168.2956237792969	-360.4119567871094	78.15297698974611	-107.5343704223633	-406.5262145996095	116.7238693237305	-79.16275024414064	-85.31199645996095	1486.796020507813	-233.1453704833985	-160.1358032226563	1207.448608398438	-229.937973022461	60.46685028076173	1204.630493164063	-223.8318328857422	29.19681930541993	1398.0146484375	-232.5125122070313	-162.4713439941407	1232.197143554688	-338.2777404785157	-115.245590209961	1387.40576171875	-368.5769042968751	-66.57323455810548	1377.046875	-428.103240966797	-17.27713394165039	1377.668212890625	-428.9292297363282	-97.9645919799805	1052.1962890625	-493.9716186523439	-136.5339050292969	1038.282592773438	-419.4195861816407	-136.8480377197266	1033.384643554688	-468.8338012695314	-43.98900222778321	790.2229614257815	-446.644012451172	-71.10314178466798	799.7781372070315	-523.5656127929689	-39.40515136718751	699.7879028320314	-455.3773803710939	-98.23053741455081	727.3471069335939	-532.7019042968751	-167.4883728027344	1240.435546875	-125.4016952514649	-123.0603179931641	1398.485717773438	-105.0265655517578	-66.15332031250001	1397.724731445313	-45.00387573242188	-20.96047592163086	1388.910766601563	-31.98192405700684	-18.38199996948243	1051.772338867188	41.70219421386719	-56.53048324584962	1028.255859375	-34.39977264404298	-56.68135452270509	1011.493225097656	9.430628776550295	180.3723754882813	906.2783813476565	-40.85268020629884	151.9883728027344	863.6160888671877	18.37498283386231	255.6386108398438	853.381286621094	-48.85522079467775	197.4529113769532	792.9656372070315	6.108103275299074	
23	0.22	71.99570465087892	947.9852294921877	-326.8905334472657	-125.7193222045899	973.937927246094	-284.4819946289063	-135.1386871337891	962.9846801757815	-179.2773895263672	49.18201446533205	932.9299926757815	-102.0335311889649	-11.31681823730469	877.7523193359377	-417.9895019531251	94.23567962646486	468.2706604003907	-367.0438537597657	83.72637176513673	464.8274536132814	-237.8264312744141	87.95435333251955	407.8062438964845	-366.7036437988282	145.9320831298828	412.7149963378907	-302.7877502441407	43.31487274169923	66.68540191650392	-328.4545898437501	66.59070587158205	82.97574615478517	-237.7836151123047	-3.838504552841187	19.25730514526368	-284.0127868652344	190.2727508544922	20.60284996032715	-239.6151428222657	200.2464599609376	35.37716674804688	-298.7589111328126	156.9033966064453	22.15190887451172	-353.9306640625001	-40.90916824340821	833.4298095703127	-47.04249572753907	-14.49046421051026	444.4657592773439	-85.11737060546876	12.9413537979126	424.9051208496095	-211.6569976806641	-50.6880569458008	408.2658996582032	-82.60092926025392	0.8249934911727907	358.8860473632813	-129.5455780029297	-345.1374816894532	244.3815917968751	-128.3539581298828	-301.2831420898438	211.1798858642579	-203.2026977539063	-393.311248779297	244.3583984375001	-191.9501953125	-325.1896057128907	73.17746734619142	-168.5179595947266	-320.8927001953126	81.4929656982422	-108.1084671020508	-367.5410461425782	119.1157455444336	-79.39904022216798	-69.68178558349611	1489.9248046875	-233.2572631835938	-144.9000549316407	1210.768676757813	-231.2821044921876	75.47837829589845	1207.684326171875	-223.7476654052735	44.68161392211915	1401.073974609375	-232.3325347900391	-146.6341705322266	1236.073852539063	-340.1264953613282	-98.96028137207034	1390.899780273438	-369.2486572265626	-49.8540382385254	1380.536987304688	-428.5209045410157	-0.7769802808761599	1381.272705078125	-428.8785095214845	-75.23294067382814	1054.298217773438	-494.9448547363282	-114.588363647461	1039.583862304688	-421.0232543945314	-114.0613708496094	1034.523681640625	-470.4210205078126	-14.78177547454834	793.650329589844	-445.7449035644532	-41.57860946655274	802.2744140625002	-522.9057617187501	-5.05488157272339	703.7552490234376	-455.213348388672	-64.9102020263672	728.5551757812501	-532.6567382812501	-152.82421875	1243.451049804688	-126.9827728271485	-108.223617553711	1401.413208007813	-105.711181640625	-51.91027069091798	1400.622436523438	-45.31437301635743	-6.645634174346926	1391.69873046875	-31.8702507019043	-6.986764907836916	1054.157836914063	40.90316009521485	-45.81842422485352	1031.700073242188	-34.99181365966798	-46.11623764038087	1015.039123535156	8.600799560546877	187.1381072998047	902.1672973632815	-40.62058258056641	158.1020202636719	861.4969482421877	19.6560344696045	260.2787170410157	846.5218505859377	-48.98063278198244	201.0798950195313	789.1066894531252	7.875968456268312	
